<svg width="16" height="13" viewBox="0 0 30 28" fill="none" xmlns="http://www.w3.org/2000/svg">
<path d="M0.593686 13.0229L8.17667 9.28048L9.39268 0.911933C9.42126 0.715284 9.50429 0.530553 9.63238 0.378629C9.76047 0.226705 9.92851 0.113647 10.1175 0.0522437C10.3065 -0.00916145 10.5089 -0.0164628 10.7018 0.0311599C10.8947 0.0787845 11.0705 0.179437 11.2092 0.321735L17.1118 6.37727L25.4463 4.94781C25.6422 4.91421 25.8435 4.93609 26.0276 5.01096C26.2117 5.08583 26.3711 5.21071 26.4879 5.37147C26.6047 5.53223 26.6742 5.72248 26.6886 5.92068C26.7029 6.11888 26.6615 6.31713 26.569 6.49303L22.634 13.9779L26.569 21.4628C26.6615 21.6387 26.7029 21.8369 26.6886 22.0351C26.6742 22.2333 26.6047 22.4236 26.4879 22.5843C26.3711 22.7451 26.2117 22.87 26.0276 22.9448C25.8435 23.0197 25.6422 23.0416 25.4463 23.008L17.1118 21.5785L11.2092 27.6339C11.0705 27.7762 10.8948 27.8769 10.7019 27.9245C10.5089 27.9721 10.3065 27.9649 10.1176 27.9035C9.92857 27.8421 9.76053 27.729 9.63243 27.5771C9.50433 27.4252 9.42128 27.2405 9.39268 27.0439L8.17668 18.6755L0.593686 14.9329C0.41548 14.845 0.265434 14.7089 0.160518 14.5402C0.0556014 14.3714 -6.02297e-07 14.1766 -6.10983e-07 13.9779C-6.1967e-07 13.7792 0.0556013 13.5844 0.160518 13.4156C0.265434 13.2469 0.41548 13.1108 0.593686 13.0229Z" fill="#F5871E"/>
<path d="M16.5532 19.8621L11.9472 24.5874C11.8432 24.6941 11.7114 24.7696 11.5667 24.8053C11.422 24.8411 11.2702 24.8356 11.1284 24.7895C10.9867 24.7435 10.8607 24.6587 10.7646 24.5447C10.6685 24.4308 10.6063 24.2922 10.5848 24.1447L9.636 17.6146L3.7187 14.6942C3.58505 14.6283 3.47251 14.5262 3.39383 14.3997C3.31514 14.2731 3.27344 14.127 3.27344 13.978C3.27344 13.8289 3.31514 13.6829 3.39383 13.5563C3.47251 13.4297 3.58505 13.3277 3.7187 13.2617L9.636 10.3413L10.5848 3.8112C10.6063 3.66371 10.6685 3.52516 10.7646 3.41122C10.8607 3.29727 10.9867 3.21247 11.1284 3.16642C11.2702 3.12036 11.422 3.11487 11.5667 3.15059C11.7114 3.1863 11.8432 3.26178 11.9472 3.3685L16.5532 8.09375L23.057 6.97832C23.2039 6.95313 23.3549 6.96954 23.493 7.02569C23.631 7.08185 23.7506 7.1755 23.8382 7.29607C23.9258 7.41664 23.9779 7.55932 23.9887 7.70796C23.9994 7.85661 23.9684 8.0053 23.899 8.13722L20.8283 13.9781L23.899 19.8188C23.9684 19.9508 23.9994 20.0995 23.9887 20.2481C23.978 20.3968 23.9258 20.5395 23.8382 20.66C23.7506 20.7806 23.631 20.8743 23.493 20.9304C23.3549 20.9866 23.2039 21.003 23.057 20.9778L16.5532 19.8621Z" fill="#FABE19"/>
<path d="M12.1741 24.0311C12.174 24.233 12.0975 24.4274 11.9599 24.5752C11.8223 24.723 11.6338 24.8131 11.4324 24.8275C11.231 24.842 11.0316 24.7796 10.8744 24.6529C10.7171 24.5263 10.6136 24.3448 10.5848 24.1449L9.63598 17.6148L3.71868 14.6944C3.52872 14.6007 3.38378 14.4353 3.31575 14.2347C3.24771 14.034 3.26217 13.8146 3.35592 13.6246C3.44968 13.4347 3.61506 13.2897 3.81568 13.2217C4.0163 13.1537 4.23573 13.1681 4.4257 13.2619L10.7195 16.3681C10.8357 16.4254 10.9361 16.5101 11.0122 16.6149C11.0884 16.7196 11.1379 16.8413 11.1565 16.9695L12.1659 23.9152C12.1714 23.9536 12.1742 23.9923 12.1741 24.0311Z" fill="#FFDB37"/>
<path d="M29.019 13.978C29.019 14.2604 28.9068 14.5313 28.707 14.731C28.5073 14.9308 28.2364 15.043 27.954 15.043L25.2915 15.043C25.0091 15.043 24.7382 14.9308 24.5385 14.731C24.3388 14.5313 24.2266 14.2604 24.2266 13.978C24.2266 13.6955 24.3388 13.4247 24.5385 13.2249C24.7382 13.0252 25.0091 12.913 25.2915 12.913L27.954 12.913C28.2364 12.913 28.5073 13.0252 28.707 13.2249C28.9068 13.4247 29.019 13.6955 29.019 13.978Z" fill="#FABE19"/>
<path d="M19.8202 1.31725C19.8201 1.42908 19.8024 1.54021 19.7677 1.64653L18.945 4.17865C18.9018 4.31166 18.8328 4.43486 18.742 4.5412C18.6512 4.64755 18.5403 4.73497 18.4157 4.79846C18.2911 4.86196 18.1552 4.90029 18.0157 4.91127C17.8763 4.92224 17.7361 4.90565 17.6031 4.86243C17.4701 4.81922 17.3469 4.75023 17.2405 4.6594C17.1342 4.56857 17.0468 4.45769 16.9833 4.33308C16.9198 4.20847 16.8814 4.07257 16.8705 3.93315C16.8595 3.79372 16.8761 3.6535 16.9193 3.52049L17.7421 0.988368C17.8203 0.747016 17.9821 0.541507 18.1983 0.408844C18.4146 0.27618 18.6711 0.225079 18.9217 0.264736C19.1723 0.304394 19.4005 0.432205 19.5652 0.625162C19.7299 0.818118 19.8203 1.06354 19.8202 1.31725Z" fill="#FABE19"/>
<path d="M7.0904 7.71933C7.0902 7.91561 7.03576 8.10801 6.93308 8.2753C6.83041 8.44259 6.68351 8.57824 6.50859 8.66729C6.33367 8.75634 6.13755 8.79532 5.94187 8.77992C5.7462 8.76452 5.55858 8.69535 5.39975 8.58003L3.24583 7.01518C3.02231 6.84734 2.87373 6.59835 2.83216 6.32194C2.79059 6.04553 2.85935 5.76386 3.02362 5.5377C3.18788 5.31154 3.43448 5.15903 3.71019 5.11307C3.98591 5.06711 4.26864 5.13139 4.49738 5.29204L6.65137 6.85689C6.78754 6.95568 6.89833 7.08536 6.97466 7.23528C7.05098 7.38521 7.09065 7.5511 7.0904 7.71933Z" fill="#FABE19"/>
<path d="M7.0906 20.2369C7.09082 20.4052 7.05111 20.5711 6.97474 20.721C6.89838 20.871 6.78752 21.0006 6.65129 21.0994L4.49764 22.6643C4.26913 22.8303 3.98404 22.8987 3.70506 22.8546C3.42609 22.8104 3.17609 22.6572 3.01006 22.4287C2.84403 22.2002 2.77558 21.9151 2.81975 21.6361C2.86393 21.3571 3.01712 21.1071 3.24562 20.9411L5.39961 19.3761C5.55844 19.2607 5.74609 19.1915 5.94182 19.176C6.13754 19.1606 6.33373 19.1995 6.50871 19.2886C6.68368 19.3777 6.83063 19.5133 6.93332 19.6807C7.03601 19.848 7.09044 20.0405 7.0906 20.2368L7.0906 20.2369Z" fill="#FABE19"/>
<path d="M19.8202 26.639C19.8203 26.8927 19.7299 27.1381 19.5652 27.3311C19.4005 27.524 19.1723 27.6518 18.9217 27.6915C18.6711 27.7312 18.4146 27.6801 18.1983 27.5474C17.9821 27.4147 17.8203 27.2092 17.7421 26.9679L16.9193 24.4357C16.8761 24.3027 16.8595 24.1624 16.8705 24.023C16.8814 23.8836 16.9198 23.7477 16.9833 23.6231C17.0468 23.4985 17.1342 23.3876 17.2405 23.2968C17.3469 23.2059 17.4701 23.1369 17.6031 23.0937C17.7361 23.0505 17.8763 23.0339 18.0157 23.0449C18.1552 23.0559 18.2911 23.0942 18.4157 23.1577C18.5403 23.2212 18.6512 23.3086 18.742 23.415C18.8328 23.5213 18.9018 23.6445 18.945 23.7775L19.7676 26.3096C19.8023 26.416 19.8201 26.5271 19.8202 26.639Z" fill="#FABE19"/>
</svg>
