<svg width="30" height="18" viewBox="0 0 30 18" fill="none" xmlns="http://www.w3.org/2000/svg">
<path d="M6.61058 0.606519L6.61146 0.605642C6.85058 0.36585 7.16593 0.249996 7.48254 0.25559L7.48253 0.25574L7.49119 0.255593C7.8076 0.250223 8.12262 0.365819 8.36269 0.605889L8.36332 0.606514C8.42392 0.666685 8.47664 0.734793 8.52477 0.809673L8.53929 0.83226L8.55828 0.851248L14.3974 6.69122L14.3977 6.69148C14.6324 6.92555 14.7499 7.23331 14.7499 7.54141C14.7499 7.84934 14.6326 8.15659 14.3978 8.39176C13.9277 8.86172 13.166 8.86149 12.6969 8.39172L12.6968 8.39158L7.66372 3.35903L7.48693 3.18226L7.31017 3.35905L2.30349 8.36626C2.30347 8.36628 2.30346 8.3663 2.30344 8.36631C1.83332 8.83616 1.07177 8.83602 0.602319 8.36635C0.13252 7.89632 0.132703 7.13497 0.602012 6.66513C0.602039 6.6651 0.602065 6.66508 0.602092 6.66505L6.41562 0.851256L6.43461 0.832265L6.44913 0.809673C6.49725 0.734825 6.55023 0.666439 6.61058 0.606519Z" fill="#2361A3" stroke="white" stroke-width="0.5"/>
</svg>
