<svg width="30" height="30" viewBox="0 0 30 30" fill="none" xmlns="http://www.w3.org/2000/svg">
<path d="M25.6042 25.6042C19.7438 31.4648 10.2572 31.4657 4.3958 25.6042C-1.46483 19.7436 -1.46571 10.2572 4.3958 4.39576C10.2563 -1.46481 19.7428 -1.46569 25.6042 4.39576C31.4649 10.2563 31.4657 19.7428 25.6042 25.6042ZM24.9774 6.5335C24.2767 7.16006 23.5272 7.71455 22.7372 8.19241C23.2594 9.99615 23.5687 11.981 23.6419 14.0443H28.0509C27.8516 11.2632 26.783 8.65433 24.9774 6.5335ZM1.94905 14.0443H6.35809C6.43121 11.981 6.74057 9.99615 7.26274 8.19241C6.47272 7.71455 5.72322 7.16006 5.02254 6.5335C3.21698 8.65433 2.14846 11.2632 1.94905 14.0443V14.0443ZM5.0226 23.4665C5.72328 22.8399 6.47278 22.2854 7.2628 21.8076C6.74063 20.0038 6.43127 18.0189 6.35815 15.9557H1.94905C2.14846 18.7367 3.21698 21.3456 5.0226 23.4665V23.4665ZM14.0444 21.61C12.4858 21.7215 10.9829 22.1054 9.58971 22.7387C10.4 24.8252 11.8937 27.3278 14.0444 27.9479V21.61ZM14.0444 19.6951V15.9556H8.27026C8.33642 17.701 8.58372 19.377 8.995 20.9105C10.5783 20.2183 12.281 19.805 14.0444 19.6951V19.6951ZM14.0444 14.0443V10.3048C12.281 10.1949 10.5783 9.78158 8.995 9.08945C8.58372 10.6229 8.33642 12.2989 8.27026 14.0443H14.0444ZM14.0444 8.38988V2.05204C11.8939 2.67222 10.4001 5.17448 9.58971 7.26123C10.9829 7.89452 12.4858 8.27841 14.0444 8.38988ZM15.9557 8.38988C17.5143 8.27841 19.0171 7.89452 20.4103 7.26123C19.6 5.17465 18.1063 2.67222 15.9557 2.05204V8.38988ZM15.9557 10.3048V14.0443H21.7298C21.6636 12.2989 21.4163 10.6229 21.005 9.08945C19.4218 9.78158 17.719 10.1949 15.9557 10.3048ZM15.9557 15.9556V19.6951C17.719 19.805 19.4218 20.2183 21.005 20.9105C21.4163 19.377 21.6636 17.701 21.7298 15.9556H15.9557ZM15.9557 21.61V27.9479C18.1063 27.3277 19.6 24.8251 20.4103 22.7386C19.0171 22.1054 17.5143 21.7215 15.9557 21.61ZM20.2483 26.9938C21.4716 26.4581 22.6129 25.7317 23.636 24.8304C23.149 24.401 22.6351 24.0117 22.0985 23.6635C21.622 24.8434 21.0133 25.9899 20.2483 26.9938V26.9938ZM7.90142 23.6635C7.36485 24.0117 6.85105 24.401 6.364 24.8304C7.3871 25.7317 8.52839 26.4581 9.75171 26.9938C8.98663 25.9898 8.37793 24.8432 7.90142 23.6635V23.6635ZM7.90148 6.33638C8.37793 5.15662 8.98675 4.01 9.75177 3.00617C8.52845 3.54186 7.38715 4.26824 6.36406 5.1695C6.85105 5.59888 7.36491 5.98821 7.90148 6.33638V6.33638ZM22.0985 6.33638C22.6351 5.98821 23.149 5.59888 23.636 5.16956C22.6129 4.2683 21.4716 3.54192 20.2483 3.00623C21.0133 4.00994 21.622 5.15656 22.0985 6.33638ZM23.6419 15.9556C23.5688 18.0189 23.2595 20.0038 22.7373 21.8075C23.5273 22.2854 24.2767 22.8399 24.9775 23.4664C26.783 21.3456 27.8516 18.7367 28.051 15.9556H23.6419Z" fill="#2361A3"/>
</svg>
