
<svg xmlns="http://www.w3.org/2000/svg" xmlns:xlink="http://www.w3.org/1999/xlink" width="794.39pt" height="166.62pt" viewBox="0 0 794.39 166.62" version="1.1">
<defs>
<clipPath id="clip1">
  <path d="M 697 42 L 794.390625 42 L 794.390625 125 L 697 125 Z M 697 42 "/>
</clipPath>
<clipPath id="clip2">
  <path d="M 61 0 L 128 0 L 128 166.621094 L 61 166.621094 Z M 61 0 "/>
</clipPath>
</defs>
<g id="surface1">
<path style=" stroke:none;fill-rule:nonzero;fill:rgb(13.299561%,11.799622%,12.199402%);fill-opacity:1;" d="M 336.078125 52.136719 L 295.621094 52.136719 L 295.621094 43.292969 L 387.367188 43.292969 L 387.367188 52.136719 L 346.910156 52.136719 L 346.910156 123.324219 L 336.078125 123.324219 "/>
<path style=" stroke:none;fill-rule:nonzero;fill:rgb(13.299561%,11.799622%,12.199402%);fill-opacity:1;" d="M 490.0625 68.277344 C 490.0625 54.347656 481.664063 51.253906 471.273438 51.253906 L 427.386719 51.253906 C 416.996094 51.253906 408.597656 54.347656 408.597656 68.277344 L 408.597656 98.34375 C 408.597656 112.269531 416.996094 115.367188 427.386719 115.367188 L 471.273438 115.367188 C 481.664063 115.367188 490.0625 112.269531 490.0625 98.34375 Z M 397.761719 72.367188 C 397.761719 52.136719 404.617188 42.410156 426.28125 42.410156 L 472.378906 42.410156 C 494.042969 42.410156 500.894531 52.136719 500.894531 72.367188 L 500.894531 94.253906 C 500.894531 114.480469 494.042969 124.210938 472.378906 124.210938 L 426.28125 124.210938 C 404.617188 124.210938 397.761719 114.480469 397.761719 94.253906 "/>
<path style=" stroke:none;fill-rule:nonzero;fill:rgb(13.299561%,11.799622%,12.199402%);fill-opacity:1;" d="M 519.359375 43.292969 L 536.273438 43.292969 L 583.03125 110.390625 L 629.789063 43.292969 L 646.703125 43.292969 L 646.703125 123.324219 L 635.871094 123.324219 L 635.871094 53.023438 L 635.648438 53.023438 L 586.902344 123.324219 L 579.164063 123.324219 L 530.414063 53.023438 L 530.191406 53.023438 L 530.191406 123.324219 L 519.359375 123.324219 "/>
<path style=" stroke:none;fill-rule:nonzero;fill:rgb(13.299561%,11.799622%,12.199402%);fill-opacity:1;" d="M 667.601563 123.324219 L 678.433594 123.324219 L 678.433594 43.292969 L 667.601563 43.292969 Z M 667.601563 123.324219 "/>
<g clip-path="url(#clip1)" clip-rule="nonzero">
<path style=" stroke:none;fill-rule:nonzero;fill:rgb(13.299561%,11.799622%,12.199402%);fill-opacity:1;" d="M 697.886719 72.367188 C 697.886719 52.136719 704.742188 42.410156 726.40625 42.410156 L 767.859375 42.410156 C 787.535156 42.410156 792.953125 51.585938 792.953125 62.308594 L 792.953125 69.160156 L 783.445313 69.160156 L 783.445313 65.511719 C 783.445313 51.914063 775.042969 51.253906 765.09375 51.253906 L 727.511719 51.253906 C 717.121094 51.253906 708.71875 54.347656 708.71875 68.277344 L 708.71875 98.34375 C 708.71875 112.269531 717.121094 115.367188 727.511719 115.367188 L 765.429688 115.367188 C 780.019531 115.367188 784.21875 112.269531 784.21875 101.4375 L 784.21875 96.464844 L 794.386719 96.464844 L 794.386719 101.878906 C 794.386719 116.359375 789.742188 124.210938 767.304688 124.210938 L 726.40625 124.210938 C 704.742188 124.210938 697.886719 114.480469 697.886719 94.253906 "/>
</g>
<path style=" stroke:none;fill-rule:nonzero;fill:rgb(13.299561%,11.799622%,12.199402%);fill-opacity:1;" d="M 252.726563 43.292969 L 239.242188 43.292969 L 191.710938 123.324219 L 203.980469 123.324219 L 213.925781 106.414063 L 213.957031 106.414063 L 219.175781 97.570313 L 219.121094 97.570313 L 245.984375 52.136719 L 272.847656 97.570313 L 230.75 97.570313 L 225.53125 106.414063 L 278.039063 106.414063 L 287.988281 123.324219 L 300.257813 123.324219 "/>
<path style=" stroke:none;fill-rule:nonzero;fill:rgb(13.299561%,11.799622%,12.199402%);fill-opacity:1;" d="M 97.949219 83.308594 C 97.949219 89.523438 92.910156 94.558594 86.699219 94.558594 C 80.484375 94.558594 75.449219 89.523438 75.449219 83.308594 C 75.449219 77.097656 80.484375 72.058594 86.699219 72.058594 C 92.910156 72.058594 97.949219 77.097656 97.949219 83.308594 "/>
<g clip-path="url(#clip2)" clip-rule="nonzero">
<path style=" stroke:none;fill-rule:nonzero;fill:rgb(93.699646%,29.399109%,13.299561%);fill-opacity:1;" d="M 94.804688 164.421875 C 95.808594 164.003906 96.621094 163.320313 97.195313 162.484375 C 103.949219 166.488281 110.226563 167.730469 115.429688 165.566406 C 133.015625 158.25 131.714844 114.929688 112.523438 68.8125 C 98.15625 34.28125 77.835938 7.972656 61.152344 0 C 76.65625 10.507813 94.246094 34.796875 107.085938 65.652344 C 126.273438 111.773438 127.578125 155.089844 109.992188 162.40625 C 106.285156 163.949219 102.03125 163.761719 97.445313 162.082031 C 98.253906 160.664063 98.425781 158.902344 97.75 157.28125 C 96.59375 154.496094 93.394531 153.175781 90.609375 154.335938 C 87.820313 155.492188 86.507813 158.691406 87.664063 161.476563 C 88.824219 164.261719 92.019531 165.582031 94.804688 164.421875 "/>
</g>
<path style=" stroke:none;fill-rule:nonzero;fill:rgb(13.299561%,11.799622%,12.199402%);fill-opacity:1;" d="M 168.296875 81.925781 C 167.960938 80.894531 167.34375 80.03125 166.558594 79.390625 C 171.085938 72.976563 172.828125 66.816406 171.082031 61.457031 C 165.191406 43.347656 121.90625 41.191406 74.402344 56.644531 C 38.839844 68.210938 10.992188 86.371094 1.714844 102.367188 C 13.425781 87.753906 39.039063 72.152344 70.820313 61.816406 C 118.320313 46.363281 161.609375 48.515625 167.5 66.625 C 168.742188 70.449219 168.214844 74.671875 166.175781 79.105469 C 164.824219 78.1875 163.082031 77.878906 161.410156 78.421875 C 158.542969 79.355469 156.976563 82.4375 157.90625 85.308594 C 158.839844 88.175781 161.921875 89.746094 164.792969 88.8125 C 167.660156 87.878906 169.230469 84.796875 168.296875 81.925781 "/>
<path style=" stroke:none;fill-rule:nonzero;fill:rgb(13.299561%,11.799622%,12.199402%);fill-opacity:1;" d="M 8.921875 59.804688 C 8.925781 60.894531 9.25 61.90625 9.800781 62.757813 C 3.527344 67.472656 -0.015625 72.804688 0 78.441406 C 0.0625 97.484375 40.605469 112.792969 90.558594 112.636719 C 127.957031 112.519531 160.023438 103.765625 173.757813 91.378906 C 158.128906 101.703125 128.96875 108.707031 95.550781 108.8125 C 45.597656 108.96875 5.054688 93.660156 4.996094 74.613281 C 4.984375 70.597656 6.777344 66.738281 10.078125 63.140625 C 11.085938 64.429688 12.644531 65.257813 14.402344 65.253906 C 17.417969 65.242188 19.855469 62.789063 19.847656 59.769531 C 19.839844 56.757813 17.386719 54.316406 14.367188 54.328125 C 11.351563 54.335938 8.914063 56.789063 8.921875 59.804688 "/>
<path style=" stroke:none;fill-rule:nonzero;fill:rgb(93.699646%,29.399109%,13.299561%);fill-opacity:1;" d="M 129.023438 13.695313 C 127.96875 13.425781 126.910156 13.492188 125.949219 13.816406 C 122.933594 6.566406 118.648438 1.8125 113.183594 0.433594 C 94.71875 -4.226563 69.835938 31.253906 57.609375 79.6875 C 48.457031 115.949219 48.988281 149.1875 57.585938 165.5625 C 51.453125 147.863281 51.898438 117.878906 60.078125 85.472656 C 72.304688 37.042969 97.1875 1.558594 115.648438 6.21875 C 119.546875 7.203125 122.84375 9.898438 125.503906 13.988281 C 124.011719 14.640625 122.820313 15.949219 122.394531 17.652344 C 121.652344 20.578125 123.425781 23.550781 126.347656 24.285156 C 129.277344 25.023438 132.246094 23.253906 132.984375 20.328125 C 133.722656 17.402344 131.953125 14.433594 129.023438 13.695313 "/>
</g>
</svg>
