<svg width="48" height="44" viewBox="0 0 50 46" fill="none" xmlns="http://www.w3.org/2000/svg">
<path d="M21.0092 18.3666C21.0092 11.2866 25.6076 5.26158 31.9716 3.12731C29.294 1.47096 26.1863 0.565001 22.9976 0.53961C18.3537 0.503185 12.5122 2.28404 9.21433 5.55563C5.91228 8.8316 4.09363 13.1991 4.09363 17.8535C4.09363 19.0043 3.80886 20.1503 3.27 21.1674L0.340699 26.6976C-0.134887 27.5921 -0.111352 28.648 0.403687 29.5224C0.918921 30.3972 1.83152 30.9301 2.845 30.9479L4.08904 30.9481V35.3753C4.08904 38.0225 6.2408 40.1762 8.88562 40.1762H12.0032V41.4709C12.0032 43.671 13.7916 45.4608 15.9898 45.4608H31.155C33.3532 45.4608 35.1416 43.671 35.1416 41.4709V38.6039C35.1416 37.1824 35.2503 35.7609 35.4658 34.3542C27.361 33.5513 21.0092 26.6876 21.0092 18.3666Z" fill="black" fill-opacity="0.5"/>
<path d="M36.8811 5.2334C29.6354 5.2334 23.7617 11.1148 23.7617 18.37C23.7617 25.6252 29.6354 31.5066 36.8811 31.5066C44.1268 31.5066 50.0006 25.6252 50.0006 18.37C50.0006 11.1148 44.1267 5.2334 36.8811 5.2334ZM38.3459 26.0803C38.3459 26.8893 37.69 27.5451 36.881 27.5451C36.0721 27.5451 35.4162 26.8893 35.4162 26.0803V24.5569C35.4162 23.7479 36.0721 23.0921 36.881 23.0921C37.69 23.0921 38.3459 23.7479 38.3459 24.5569V26.0803ZM38.8114 19.6026C38.5329 19.7097 38.3459 19.9998 38.3459 20.3246C38.3459 21.1336 37.69 21.7895 36.881 21.7895C36.0721 21.7895 35.4162 21.1336 35.4162 20.3246C35.4162 18.7959 36.3582 17.4067 37.7604 16.868C38.774 16.4785 39.4037 15.4856 39.3274 14.3974C39.2426 13.1862 38.225 12.1895 37.0108 12.1279C36.306 12.0916 35.6436 12.346 35.1468 12.843C34.5748 13.415 33.6473 13.415 33.0752 12.843C32.5031 12.2709 32.5031 11.3435 33.0752 10.7714C34.1496 9.69697 35.6381 9.12568 37.159 9.20195C39.8715 9.33936 42.0601 11.4848 42.2498 14.1925C42.4169 16.5739 41.035 18.7481 38.8114 19.6026Z" fill="black" fill-opacity="0.5"/>
</svg>
