<svg width="48" height="44" viewBox="0 0 48 59" fill="none" xmlns="http://www.w3.org/2000/svg">
<path d="M28 15.6719V0H3C1.3375 0 0 1.23301 0 2.76562V56.2344C0 57.767 1.3375 59 3 59H45C46.6625 59 48 57.767 48 56.2344V18.4375H31C29.35 18.4375 28 17.193 28 15.6719ZM37.5563 40.0278L25.5037 51.0557C24.6725 51.8174 23.33 51.8174 22.4988 51.0557L10.4462 40.0278C9.1775 38.8674 10.0675 36.875 11.8525 36.875H20V27.6562C20 26.6376 20.895 25.8125 22 25.8125H26C27.105 25.8125 28 26.6376 28 27.6562V36.875H36.1475C37.9325 36.875 38.8225 38.8674 37.5563 40.0278ZM47.125 12.0996L34.8875 0.806641C34.325 0.288086 33.5625 0 32.7625 0H32V14.75H48V14.0471C48 13.3211 47.6875 12.6182 47.125 12.0996Z" fill="black" fill-opacity="0.5"/>
</svg>
