<svg width="48" height="44" viewBox="0 0 50 44" fill="none" xmlns="http://www.w3.org/2000/svg">
<path d="M45.3978 0H23.4306C20.8885 0 18.8281 2.06072 18.8281 4.60248V15.423C19.9893 16.0002 21.244 16.6242 22.4151 17.2064L24.2069 13.6213C25.2918 11.4534 27.9366 10.5725 30.1037 11.6555C32.2755 12.7424 33.1555 15.3799 32.0683 17.552L28.8742 23.9417C28.9589 24.7874 28.8838 25.64 28.6454 26.4651H30.7541L25.1923 41.7592C24.8623 42.6663 25.5001 43.7249 26.5694 43.7249C27.1671 43.7249 27.7294 43.356 27.9453 42.7601L33.8712 26.4651H34.8977L40.8838 42.7651C41.1016 43.3579 41.6624 43.7249 42.2598 43.7249C43.2588 43.7249 43.9913 42.727 43.6338 41.7553L38.0185 26.4651H45.3978C47.9395 26.4651 50.0002 24.4044 50.0002 21.8626V4.60248C50.0002 2.06072 47.9395 0 45.3978 0V0ZM42.259 20.1895H35.6866C34.8779 20.1895 34.2217 19.5334 34.2217 18.7246C34.2217 17.9151 34.8779 17.2598 35.6866 17.2598H42.259C43.0685 17.2598 43.7239 17.9151 43.7239 18.7246C43.7239 19.5334 43.0685 20.1895 42.259 20.1895ZM42.259 14.6974H35.6866C34.8779 14.6974 34.2217 14.042 34.2217 13.2326C34.2217 12.4238 34.8779 11.7677 35.6866 11.7677H42.259C43.0685 11.7677 43.7239 12.4238 43.7239 13.2326C43.7239 14.042 43.0685 14.6974 42.259 14.6974ZM42.259 9.2061H26.5694C25.7599 9.2061 25.1045 8.54997 25.1045 7.74125C25.1045 6.93252 25.7599 6.27639 26.5694 6.27639H42.259C43.0685 6.27639 43.7239 6.93252 43.7239 7.74125C43.7239 8.54997 43.0685 9.2061 42.259 9.2061Z" fill="black" fill-opacity="0.5"/>
<path d="M25.7739 25.8368C26.0386 25.0613 26.0367 24.251 25.8132 23.5117L29.4486 16.2416C29.8103 15.5179 29.5173 14.6379 28.7936 14.2762C28.0704 13.9142 27.1903 14.2076 26.8283 14.9312L23.7277 21.1317C21.8745 20.2089 19.0588 18.8089 16.7906 17.6809C14.6803 16.6315 13.1742 15.6904 10.6046 15.6904H9.31025C11.3111 15.6904 13.0968 14.7695 14.2656 13.3283C15.1575 12.2315 15.6908 10.8338 15.6908 9.3106C15.6908 5.78616 12.8343 2.92969 9.30948 2.92969C5.78619 2.92969 2.92972 5.78616 2.92972 9.3106C2.92972 11.0032 3.5889 12.5413 4.66428 13.6827C5.82701 14.919 7.47841 15.6904 9.3091 15.6907C6.8547 15.6907 4.45523 16.6852 2.72906 18.416C0.969325 20.1712 0 22.5096 0 25.0006V29.7076C0 31.734 1.3157 33.4583 3.138 34.0717V42.2596C3.138 43.0687 3.79376 43.7245 4.60286 43.7245H14.0169C14.826 43.7245 15.4817 43.0687 15.4817 42.2596V25.8009C16.8707 26.4952 18.6953 27.4073 20.1716 28.1459C21.2065 28.6631 22.4158 28.7097 23.4942 28.271C24.5696 27.8285 25.3985 26.9477 25.7682 25.854C25.7701 25.8482 25.772 25.8425 25.7739 25.8368Z" fill="black" fill-opacity="0.5"/>
</svg>
