<svg width="48" height="44" viewBox="0 0 75 62" fill="none" xmlns="http://www.w3.org/2000/svg">
<g clip-path="url(#clip0)">
<path d="M60.0109 23.1295L59.0499 24.8611C58.6984 25.5029 57.9484 25.7693 57.2804 25.515C55.8976 24.9822 54.632 24.2193 53.5187 23.2627C52.9796 22.8025 52.839 21.9912 53.1906 21.3615L54.1515 19.6298C53.3429 18.6611 52.7101 17.5349 52.2882 16.3119H50.3546C49.6515 16.3119 49.0421 15.7912 48.9249 15.0646C48.6906 13.6115 48.6788 12.0857 48.9249 10.572C49.0421 9.84547 49.6515 9.31266 50.3546 9.31266H52.2882C52.7101 8.08961 53.3429 6.96344 54.1515 5.99469L53.1906 4.26305C52.839 3.63336 52.9679 2.82204 53.5187 2.36188C54.632 1.40524 55.9093 0.642348 57.2804 0.109536C57.9484 -0.144761 58.6984 0.121645 59.0499 0.763442L60.0109 2.49508C61.2413 2.265 62.4952 2.265 63.7257 2.49508L64.6866 0.763442C65.0382 0.121645 65.7882 -0.144761 66.4562 0.109536C67.839 0.642348 69.1046 1.40524 70.2179 2.36188C70.757 2.82204 70.8976 3.63336 70.546 4.26305L69.5851 5.99469C70.3937 6.96344 71.0265 8.08961 71.4484 9.31266H73.382C74.0851 9.31266 74.6945 9.83336 74.8117 10.5599C75.046 12.0131 75.0577 13.5388 74.8117 15.0525C74.6945 15.7791 74.0851 16.3119 73.382 16.3119H71.4484C71.0265 17.5349 70.3937 18.6611 69.5851 19.6298L70.546 21.3615C70.8976 21.9912 70.7687 22.8025 70.2179 23.2627C69.1046 24.2193 67.8273 24.9822 66.4562 25.515C65.7882 25.7693 65.0382 25.5029 64.6866 24.8611L63.7257 23.1295C62.507 23.3595 61.2413 23.3595 60.0109 23.1295ZM58.7804 16.0091C63.2921 19.5935 68.4367 14.2775 64.9679 9.61539C60.4562 6.01891 55.3116 11.347 58.7804 16.0091ZM45.2687 34.6455L49.2179 36.6798C50.4015 37.3822 50.9171 38.8716 50.4484 40.2037C49.4054 43.1341 47.3546 45.8224 45.4562 48.1716C44.589 49.2494 43.089 49.5158 41.9054 48.8134L38.4952 46.7791C36.6202 48.438 34.4406 49.758 32.0616 50.6177V54.6865C32.0616 56.0912 31.089 57.3021 29.7531 57.5443C26.8702 58.0529 23.8468 58.0771 20.8585 57.5443C19.5109 57.3021 18.5148 56.1033 18.5148 54.6865V50.6177C16.1359 49.7459 13.9562 48.438 12.0812 46.7791L8.67102 48.8013C7.49915 49.5037 5.98743 49.2373 5.12024 48.1595C3.2218 45.8103 1.2179 43.122 0.174929 40.2037C-0.293821 38.8838 0.221803 37.3943 1.4054 36.6798L5.30774 34.6455C4.85071 32.1146 4.85071 29.5111 5.30774 26.9681L1.4054 24.9216C0.221803 24.2193 -0.30554 22.7298 0.174929 21.4099C1.2179 18.4795 3.2218 15.7912 5.12024 13.442C5.98743 12.3642 7.48743 12.0978 8.67102 12.8002L12.0812 14.8345C13.9562 13.1756 16.1359 11.8556 18.5148 10.9959V6.915C18.5148 5.52243 19.4757 4.31149 20.8116 4.0693C23.6945 3.56071 26.7296 3.53649 29.7179 4.05719C31.0656 4.29938 32.0616 5.49821 32.0616 6.915V10.9838C34.4406 11.8556 36.6202 13.1634 38.4952 14.8224L41.9054 12.7881C43.0773 12.0857 44.589 12.3521 45.4562 13.4298C47.3546 15.7791 49.3468 18.4673 50.3898 21.3978C50.8585 22.7177 50.4015 24.2072 49.2179 24.9216L45.2687 26.956C45.7257 29.499 45.7257 32.1025 45.2687 34.6455ZM31.4874 37.2006C38.4249 27.8763 28.1241 17.2322 19.1007 24.4009C12.1632 33.7252 22.464 44.3693 31.4874 37.2006ZM60.0109 59.3244L59.0499 61.056C58.6984 61.6978 57.9484 61.9642 57.2804 61.7099C55.8976 61.1771 54.632 60.4142 53.5187 59.4576C52.9796 58.9974 52.839 58.1861 53.1906 57.5564L54.1515 55.8248C53.3429 54.856 52.7101 53.7298 52.2882 52.5068H50.3546C49.6515 52.5068 49.0421 51.9861 48.9249 51.2595C48.6906 49.8064 48.6788 48.2806 48.9249 46.767C49.0421 46.0404 49.6515 45.5076 50.3546 45.5076H52.2882C52.7101 44.2845 53.3429 43.1584 54.1515 42.1896L53.1906 40.458C52.839 39.8283 52.9679 39.017 53.5187 38.5568C54.632 37.6002 55.9093 36.8373 57.2804 36.3045C57.9484 36.0502 58.6984 36.3166 59.0499 36.9584L60.0109 38.69C61.2413 38.4599 62.4952 38.4599 63.7257 38.69L64.6866 36.9584C65.0382 36.3166 65.7882 36.0502 66.4562 36.3045C67.839 36.8373 69.1046 37.6002 70.2179 38.5568C70.757 39.017 70.8976 39.8283 70.546 40.458L69.5851 42.1896C70.3937 43.1584 71.0265 44.2845 71.4484 45.5076H73.382C74.0851 45.5076 74.6945 46.0283 74.8117 46.7548C75.046 48.208 75.0577 49.7337 74.8117 51.2474C74.6945 51.974 74.0851 52.5068 73.382 52.5068H71.4484C71.0265 53.7298 70.3937 54.856 69.5851 55.8248L70.546 57.5564C70.8976 58.1861 70.7687 58.9974 70.2179 59.4576C69.1046 60.4142 67.8273 61.1771 66.4562 61.7099C65.7882 61.9642 65.0382 61.6978 64.6866 61.056L63.7257 59.3244C62.507 59.5545 61.2413 59.5545 60.0109 59.3244ZM58.7804 52.192C63.2921 55.7763 68.4367 50.4603 64.9679 45.7982C60.4562 42.2138 55.3116 47.5298 58.7804 52.192Z" fill="black"
fill-opacity="0.5"/>
</g>
<defs>
<clipPath id="clip0">
<rect width="75" height="62" fill="black" fill-opacity="0.5"/>
</clipPath>
</defs>
</svg>
