<svg width="40" height="40" viewBox="0 0 40 40" fill="none" xmlns="http://www.w3.org/2000/svg">
<g clip-path="url(#clip0)">
<path d="M19.7145 19.2681C22.3616 19.2681 24.6537 18.3187 26.5266 16.4456C28.3995 14.5727 29.3489 12.2811 29.3489 9.63375C29.3489 6.98728 28.3995 4.69542 26.5263 2.82195C24.6531 0.949398 22.3613 0 19.7145 0C17.0671 0 14.7755 0.949398 12.9026 2.82225C11.0298 4.69511 10.0801 6.98697 10.0801 9.63375C10.0801 12.2811 11.0298 14.573 12.903 16.4459C14.7761 18.3184 17.068 19.2681 19.7145 19.2681Z" fill="white"/>
<path d="M36.5726 30.7577C36.5186 29.9783 36.4093 29.1281 36.2485 28.2303C36.0861 27.3257 35.8771 26.4706 35.6268 25.6891C35.3683 24.8813 35.0168 24.0835 34.5822 23.3191C34.1312 22.5256 33.6014 21.8347 33.0069 21.2662C32.3853 20.6714 31.6241 20.1932 30.744 19.8444C29.8669 19.4974 28.895 19.3216 27.8552 19.3216C27.4469 19.3216 27.052 19.4891 26.2894 19.9857C25.82 20.2917 25.271 20.6457 24.6582 21.0373C24.1342 21.3711 23.4244 21.684 22.5476 21.9672C21.6922 22.2439 20.8237 22.3843 19.9664 22.3843C19.1092 22.3843 18.241 22.2439 17.3846 21.9672C16.5088 21.6843 15.799 21.3715 15.2756 21.0376C14.6686 20.6497 14.1193 20.2957 13.6429 19.9853C12.8812 19.4888 12.486 19.3213 12.0776 19.3213C11.0376 19.3213 10.0659 19.4974 9.18915 19.8447C8.30963 20.1929 7.54822 20.6711 6.92596 21.2665C6.33179 21.8353 5.8017 22.5259 5.35126 23.3191C4.91699 24.0835 4.56543 24.881 4.30664 25.6894C4.0567 26.4709 3.84766 27.3257 3.6853 28.2303C3.52448 29.1269 3.41522 29.9774 3.36121 30.7586C3.30811 31.524 3.28125 32.3184 3.28125 33.1207C3.28125 35.2087 3.94501 36.899 5.25391 38.1457C6.54663 39.3758 8.25714 39.9999 10.3372 39.9999H29.5975C31.6776 39.9999 33.3875 39.3761 34.6805 38.1457C35.9897 36.9 36.6534 35.2093 36.6534 33.1204C36.6531 32.3144 36.626 31.5194 36.5726 30.7577Z" fill="white"/>
</g>
<defs>
<clipPath id="clip0">
<rect width="40" height="40" fill="white"/>
</clipPath>
</defs>
</svg>
