<svg width="44" height="68" viewBox="0 0 44 68" fill="none" xmlns="http://www.w3.org/2000/svg">
<path d="M21.4778 34H0V0H7.43673V26.593H21.4778V34ZM1.78981 32.0078H19.6879V28.5852H5.64692V1.99219H1.78981V32.0078Z" fill="#FFF7E8"/>
<path d="M32.1367 67.7418H22.5039V34.7256H31.8816C33.9175 34.7256 35.4433 34.9323 36.5461 35.3577L36.5487 35.3586C41.8014 37.4105 43.6027 44.4213 43.6027 51.5293C43.6027 59.5988 41.0981 65.1067 36.55 67.0383C35.4196 67.5121 33.9769 67.7418 32.1367 67.7418ZM24.011 65.8073H32.1367C33.7922 65.8073 35.1187 65.6031 36.0795 65.2005C41.0514 63.0888 42.0957 56.6004 42.0957 51.5293C42.0957 47.0551 41.318 39.2457 36.1116 37.2101C35.1648 36.8451 33.7417 36.6601 31.8816 36.6601H24.011V65.8073ZM31.4991 62.5267H27.2225V39.9618H30.0962C32.0912 39.9618 33.4131 40.0664 34.1371 40.2815C38.0151 41.3979 38.7247 46.1995 38.7247 51.2548C38.7247 56.1001 38.2454 60.9722 34.5426 62.1998C33.8908 62.4198 32.8952 62.5267 31.4991 62.5267V62.5267ZM28.7296 60.5922H31.4991C32.7476 60.5922 33.6431 60.5034 34.1606 60.3285L34.1643 60.3273C36.6984 59.4882 37.2176 56.0936 37.2176 51.2548C37.2176 45.4974 36.229 42.8649 33.8053 42.1686L33.7993 42.1669C33.3858 42.0435 32.4076 41.8964 30.0962 41.8964H28.7296V60.5922Z" fill="#FFF7E8"/>
</svg>
