<svg width="75" height="73" viewBox="0 0 75 73" fill="none" xmlns="http://www.w3.org/2000/svg">
<path d="M36.9991 72.2741C57.4331 72.2741 73.9982 56.0954 73.9982 36.138C73.9982 16.1806 57.4331 0.00195312 36.9991 0.00195312C16.5651 0.00195312 0 16.1806 0 36.138C0 56.0954 16.5651 72.2741 36.9991 72.2741Z" fill="url(#paint0_linear)"/>
<path d="M37.0017 0C34.7352 0 32.5197 0.209911 30.3652 0.590847C47.6307 3.64663 60.7284 18.3922 60.7284 36.1361C60.7284 41.9149 59.3318 47.3714 56.8621 52.2137C55.6102 46.7095 50.4225 42.6519 44.33 43.0116C38.4095 43.3609 33.537 48.0063 33.0498 53.7799C32.7941 56.8129 33.7142 59.6303 35.4139 61.8443C38.1123 65.3598 36.2189 70.4343 31.8288 71.3921C31.3448 71.4978 30.8566 71.5942 30.3658 71.6813C32.5197 72.0628 34.7352 72.2721 37.0022 72.2721C57.4362 72.2721 74.0013 56.0935 74.0013 36.1361C74.0013 16.1787 57.4352 0 37.0017 0Z" fill="url(#paint1_linear)"/>
<path d="M18.2901 42.9895C22.6129 42.9895 26.1173 39.5668 26.1173 35.3448C26.1173 31.1228 22.6129 27.7002 18.2901 27.7002C13.9673 27.7002 10.4629 31.1228 10.4629 35.3448C10.4629 39.5668 13.9673 42.9895 18.2901 42.9895Z" fill="url(#paint2_linear)"/>
<path d="M42.128 27.6999C46.4509 27.6999 49.9552 24.2773 49.9552 20.0553C49.9552 15.8333 46.4509 12.4106 42.128 12.4106C37.8051 12.4106 34.3008 15.8333 34.3008 20.0553C34.3008 24.2773 37.8051 27.6999 42.128 27.6999Z" fill="url(#paint3_linear)"/>
<defs>
<linearGradient id="paint0_linear" x1="0" y1="36.138" x2="73.9987" y2="36.138" gradientUnits="userSpaceOnUse">
<stop stop-color="#EAF6FF"/>
<stop offset="0.5213" stop-color="#D8ECFE"/>
<stop offset="1" stop-color="#B3DAFE"/>
</linearGradient>
<linearGradient id="paint1_linear" x1="-25.763" y1="36.1361" x2="50.6979" y2="36.1361" gradientUnits="userSpaceOnUse">
<stop stop-color="#EAF6FF"/>
<stop offset="0.5213" stop-color="#D8ECFE"/>
<stop offset="1" stop-color="#B3DAFE"/>
</linearGradient>
<linearGradient id="paint2_linear" x1="-25.7657" y1="35.3448" x2="50.6953" y2="35.3448" gradientUnits="userSpaceOnUse">
<stop stop-color="#EAF6FF"/>
<stop offset="0.5213" stop-color="#D8ECFE"/>
<stop offset="1" stop-color="#B3DAFE"/>
</linearGradient>
<linearGradient id="paint3_linear" x1="-25.7672" y1="20.0553" x2="50.6939" y2="20.0553" gradientUnits="userSpaceOnUse">
<stop stop-color="#EAF6FF"/>
<stop offset="0.5213" stop-color="#D8ECFE"/>
<stop offset="1" stop-color="#B3DAFE"/>
</linearGradient>
</defs>
</svg>
