<svg width="291" height="250" viewBox="0 0 291 263" fill="none" xmlns="http://www.w3.org/2000/svg">
<path d="M134.413 262.556C208.648 262.556 268.826 203.781 268.826 131.278C268.826 58.7752 208.648 0 134.413 0C60.1788 0 0 58.7752 0 131.278C0 203.781 60.1788 262.556 134.413 262.556Z" fill="url(#paint0_linear)"/>
<path d="M39.2344 105.979C43.6867 104.702 48.163 103.326 52.6546 101.853C59.9425 99.4639 63.8128 91.6989 61.2695 84.6134L61.2676 84.6086C58.7728 77.6579 51.0213 73.9337 43.8734 76.2816C39.7213 77.6453 35.5882 78.9179 31.4828 80.0969C25.1835 81.9063 21.0505 87.7804 21.6043 94.1709C22.3405 102.663 30.8614 108.38 39.2344 105.979Z" fill="url(#paint1_linear)"/>
<path d="M81.0752 160.346C81.0752 155.835 80.0227 151.565 78.1456 147.755C86.9355 147.704 94.046 140.73 94.046 132.134C94.046 123.504 86.8833 116.509 78.0486 116.509C69.2139 116.509 62.0513 123.504 62.0513 132.134C62.0513 132.511 62.0697 132.884 62.0967 133.255C58.7527 131.985 55.1195 131.28 51.3155 131.28C34.8792 131.28 21.5547 144.294 21.5547 160.347C21.5547 176.4 34.8792 189.413 51.3155 189.413C67.7513 189.412 81.0752 176.399 81.0752 160.346Z" fill="url(#paint2_linear)"/>
<path d="M98.9251 45.2963C107.76 45.2963 114.922 38.3011 114.922 29.6721C114.922 21.043 107.76 14.0479 98.9251 14.0479C90.09 14.0479 82.9277 21.043 82.9277 29.6721C82.9277 38.3011 90.09 45.2963 98.9251 45.2963Z" fill="url(#paint3_linear)"/>
<path d="M134.403 0.00146484C130.259 0.00146484 126.163 0.193371 122.117 0.553196C140.2 1.85456 146.113 24.6735 131.21 34.4787C121.859 40.6257 111.832 46.5029 101.27 52.0142C94.4238 55.5885 91.6361 64.0084 95.1054 70.7851C97.4326 75.3309 102.081 77.9336 106.919 77.9336C109.013 77.9336 111.15 77.4419 113.139 76.4104C126.212 69.6337 138.573 62.3052 150.006 54.587C156.631 50.1071 165.67 51.3305 170.858 57.3456C173.351 60.2302 174.555 63.7325 174.555 67.2048C174.555 71.9605 172.301 76.6683 168.003 79.6788C162.293 83.6729 156.3 87.571 150.055 91.3431C144.51 94.6895 141.87 101.322 144.025 107.325C147.034 115.697 156.981 118.87 164.405 114.39C183.274 102.995 200.148 90.4975 214.191 77.4599C220.558 71.5467 231.009 73.7777 234.331 81.7238C234.361 81.8018 234.398 81.8857 234.429 81.9637C236.24 86.3236 235.313 91.3191 232.053 94.7795C228.252 98.8155 223.383 103.859 220.865 106.168C207.197 118.726 190.507 130.774 171.7 141.695C168.838 131.32 158.811 123.811 147.12 124.549C135.011 125.323 125.334 135.086 124.91 146.93C124.702 152.807 126.734 158.223 130.228 162.421C125.77 164.322 121.306 166.133 116.848 167.842C109.897 170.505 106.054 177.995 108.467 184.892C111.021 192.178 119.261 195.89 126.562 193.102C133.501 190.457 140.439 187.59 147.359 184.514C185.675 167.446 219.44 145.503 243.903 121.94C244.131 125.023 244.241 128.141 244.241 131.278C244.241 134.366 244.131 137.425 243.916 140.453C224.881 159.44 198.729 177.533 168.777 192.292C133.802 209.522 98.1571 219.999 68.1986 221.858C67.7135 221.888 67.2284 221.918 66.7433 221.942C53.9776 222.625 42.9742 221.6 34.4883 219.081C45.6207 231.159 59.0127 241.204 74.0196 248.587C83.4572 247.801 93.3063 246.308 103.438 244.137C128.453 238.782 155.145 229.348 181.272 216.472C181.457 216.382 181.641 216.292 181.825 216.203C193.553 210.397 203.795 226.002 193.51 234.008C173.554 249.528 148.98 259.627 122.117 262.002C126.163 262.362 130.259 262.554 134.403 262.554C208.64 262.554 268.815 203.783 268.815 131.278C268.815 58.7729 208.64 0.00146484 134.403 0.00146484ZM188.978 58.0653C180.143 58.0653 172.983 51.0727 172.983 42.4429C172.983 33.8131 180.143 26.8204 188.978 26.8204C197.814 26.8204 204.98 33.8131 204.98 42.4429C204.98 51.0727 197.814 58.0653 188.978 58.0653ZM221.356 215.921C212.52 215.921 205.355 208.928 205.355 200.298C205.355 191.668 212.52 184.67 221.356 184.67C230.192 184.67 237.352 191.668 237.352 200.298C237.352 208.928 230.192 215.921 221.356 215.921Z" fill="url(#paint4_linear)"/>
<defs>
<linearGradient id="paint0_linear" x1="0.000614031" y1="131.278" x2="268.826" y2="131.278" gradientUnits="userSpaceOnUse">
<stop stop-color="#60B7FF"/>
<stop offset="0.5857" stop-color="#0182FC"/>
<stop offset="1" stop-color="#2740B0"/>
</linearGradient>
<linearGradient id="paint1_linear" x1="-75.3868" y1="91.0542" x2="256.815" y2="91.0542" gradientUnits="userSpaceOnUse">
<stop stop-color="#60B7FF"/>
<stop offset="0.5857" stop-color="#0182FC"/>
<stop offset="1" stop-color="#2740B0"/>
</linearGradient>
<linearGradient id="paint2_linear" x1="-75.3873" y1="152.961" x2="256.814" y2="152.961" gradientUnits="userSpaceOnUse">
<stop stop-color="#60B7FF"/>
<stop offset="0.5857" stop-color="#0182FC"/>
<stop offset="1" stop-color="#2740B0"/>
</linearGradient>
<linearGradient id="paint3_linear" x1="-75.3873" y1="29.6721" x2="256.815" y2="29.6721" gradientUnits="userSpaceOnUse">
<stop stop-color="#60B7FF"/>
<stop offset="0.5857" stop-color="#0182FC"/>
<stop offset="1" stop-color="#2740B0"/>
</linearGradient>
<linearGradient id="paint4_linear" x1="-75.387" y1="131.278" x2="256.809" y2="131.278" gradientUnits="userSpaceOnUse">
<stop stop-color="#60B7FF"/>
<stop offset="0.5857" stop-color="#0182FC"/>
<stop offset="1" stop-color="#2740B0"/>
</linearGradient>
</defs>
</svg>
