<svg width="138" height="122" viewBox="0 0 138 130" fill="none" xmlns="http://www.w3.org/2000/svg">
<path d="M134.839 52.5895C130.976 53.2584 127.108 56.4119 123.209 56.7476C111.922 57.711 100.519 56.6805 89.2059 57.0033C77.8903 57.3236 66.5643 58.9998 55.2461 58.6769C43.9331 58.3567 32.7202 56.04 21.4354 55.074C17.416 54.7305 13.3785 51.9748 9.33594 51.8198C9.8011 49.4238 15.8197 48.2825 16.5419 45.9901C17.5075 42.9254 13.275 38.7533 14.6687 35.9077C33.5452 36.4939 52.4423 33.9061 71.3188 33.3043C77.0602 33.1209 82.7964 33.5393 88.3989 34.513C93.1842 35.342 98.0621 35.7605 102.953 35.7605C105.407 35.7605 107.864 35.6571 110.316 35.4428C116.715 34.8901 123.101 36.8529 129.485 36.1582C131.968 41.2901 133.79 46.8042 134.839 52.5895Z" fill="#E27C48"/>
<path d="M35.65 36.3158C34.3984 39.6397 33.4141 43.0928 32.7228 46.6544C32.2756 48.9479 31.9518 51.2852 31.759 53.6588C28.3204 53.2068 24.8818 52.7858 21.4354 52.4914C17.416 52.1479 13.3785 51.9748 9.33594 51.8199C10.423 46.2205 12.2323 40.882 14.6687 35.9077C21.6616 36.1247 28.6545 36.2615 35.65 36.3158Z" fill="#DF6937"/>
<path d="M135.88 64.1807C135.88 65.0175 135.864 65.8492 135.833 66.6782C131.642 67.4246 127.442 70.6479 123.21 71.012C111.922 71.9754 100.519 70.9449 89.2062 71.2677C77.8906 71.588 66.5646 73.2642 55.2464 72.9413C43.9334 72.6211 32.7205 70.3044 21.4357 69.3384C17.0308 68.9613 12.6078 66.2082 8.17974 66.0429C8.15918 65.4256 14.6689 61.2258 14.6689 60.6034C14.6689 56.3755 8.55752 55.8205 9.33623 51.8198C13.3788 51.9748 17.4163 52.1478 21.4357 52.4913C32.7205 53.4573 43.9334 55.774 55.2464 56.0942C66.5646 56.4171 77.8906 54.7409 89.2062 54.4206C100.519 54.0978 111.922 55.1283 123.21 54.1649C127.108 53.8292 130.976 53.2584 134.839 52.5895C135.522 56.3499 135.88 60.224 135.88 64.1807Z" fill="#EFEDEF"/>
<path d="M129.485 36.1583C123.101 36.853 116.714 37.4729 110.315 38.0256C107.863 38.2399 105.406 38.3432 102.952 38.3432C98.0614 38.3432 93.1836 37.9248 88.3982 37.0958C82.7957 36.1221 77.0595 35.7037 71.3181 35.8871C52.4416 36.4888 33.5445 36.494 14.668 35.9077C16.6612 31.8291 26.8248 33.5686 29.5988 30.0346C31.6926 27.3674 26.2416 19.2977 28.7232 16.997C36.1736 17.5911 42.7168 15.481 46.929 15.7754C49.2317 15.9355 51.4187 16.9919 52.8425 18.8179C53.9373 20.228 55.8648 21.163 58.0596 21.163C60.1027 21.163 61.9146 20.352 63.0402 19.102C64.6285 17.3354 66.8258 16.261 69.1953 16.2713C84.6718 16.341 100.148 18.3969 115.596 17.2656C121.304 22.6248 126.033 29.0222 129.485 36.1583Z" fill="#F3D332"/>
<path d="M115.598 17.2655C100.15 18.3967 84.6732 18.9236 69.1967 18.8539C66.8272 18.8435 64.6299 19.9179 63.0416 21.6845C61.916 22.9346 60.1041 23.7455 58.061 23.7455C55.8662 23.7455 53.9387 22.8106 52.8439 21.4004C51.4201 19.5744 49.2331 18.5181 46.9304 18.358C42.7182 18.0636 36.175 17.5909 28.7246 16.9969C32.9792 13.0531 40.0814 14.1675 45.2828 11.4931C53.0521 7.49816 59.429 0.570782 68.6362 0.0883291C69.7554 0.0297013 70.8821 0 72.016 0C88.8622 0 104.184 6.55753 115.598 17.2655Z" fill="#D16161"/>
<path d="M32.1566 67.9748C28.5869 67.5047 25.0146 67.0631 21.4346 66.7557C17.0297 66.3786 12.6067 66.2082 8.17866 66.0429C8.1581 65.4256 8.15039 64.8032 8.15039 64.1807C8.15039 59.9528 8.55645 55.8205 9.33515 51.8198C13.3777 51.9748 17.4152 52.1478 21.4346 52.4913C24.881 52.7858 28.3196 53.2067 31.7583 53.6587C31.6118 55.4253 31.5372 57.2126 31.5372 59.0153C31.5372 59.6377 31.545 60.2602 31.5655 60.8774C31.6323 63.2794 31.8328 65.6477 32.1566 67.9748Z" fill="#E3E0E4"/>
<path d="M46.0346 18.2957C42.9224 22.1026 40.2367 26.2763 38.0548 30.7418C37.1682 32.5523 36.3638 34.4119 35.6493 36.3153C28.6538 36.2611 21.6609 36.1242 14.668 35.9073C18.1657 28.7505 22.9536 22.3454 28.7232 16.9966C35.6647 17.5493 41.8199 17.9987 46.0346 18.2957Z" fill="#ECC52E"/>
<path d="M70.2093 0.0258789C63.5068 2.91853 57.3979 6.93208 52.1115 11.8315C49.9424 13.8409 47.9121 16.0026 46.036 18.2961C41.8212 17.999 35.6661 17.5496 28.7246 16.9969C39.6959 6.82877 54.2163 0.47269 70.2093 0.0258789Z" fill="#CA4646"/>
<path d="M80.9995 35.5677C80.89 38.8098 83.4168 40.0188 87.6049 40.1616C91.5865 40.2975 94.321 39.158 94.735 36.1486C94.7564 35.9926 94.77 35.8348 94.7754 35.6749C94.8849 32.4328 91.5786 29.6889 87.3908 29.5458C85.6581 29.4867 84.046 29.8821 82.7435 30.5955C80.8977 31.6069 81.0638 33.6668 80.9995 35.5677Z" fill="#D16161"/>
<path d="M94.7299 36.148C94.3188 39.1568 90.9752 41.4219 86.9917 41.2876C82.8052 41.143 79.4976 38.4001 79.6082 35.1562C79.6853 32.8447 81.4765 30.905 84.0183 30.0347C83.9951 30.1896 83.9823 30.3472 83.9771 30.5073C83.8666 33.7512 87.1742 36.4941 91.3607 36.6387C92.5634 36.68 93.7071 36.5018 94.7299 36.148Z" fill="#CA4646"/>
<path d="M129.251 9.55598V8.72847H130.076C131.14 8.72847 132.003 7.86119 132.003 6.79143C132.003 5.72167 131.14 4.85439 130.076 4.85439H129.251V4.02689C129.251 2.95712 128.388 2.08984 127.323 2.08984C126.258 2.08984 125.396 2.95712 125.396 4.02689V4.85439H124.57C123.505 4.85439 122.643 5.72167 122.643 6.79143C122.643 7.86119 123.505 8.72847 124.57 8.72847H125.396V9.55598C125.396 10.6257 126.258 11.493 127.323 11.493C128.388 11.493 129.251 10.6257 129.251 9.55598Z" fill="#CA4646"/>
<path d="M135.879 108.474H135.108V107.702C135.108 106.632 134.245 105.765 133.181 105.765C132.116 105.765 131.253 106.632 131.253 107.702V108.474H130.482C129.417 108.474 128.555 109.342 128.555 110.411C128.555 111.481 129.417 112.349 130.482 112.349H131.253V113.121C131.253 114.191 132.116 115.058 133.181 115.058C134.245 115.058 135.108 114.191 135.108 113.121V112.349H135.879C136.944 112.349 137.807 111.481 137.807 110.411C137.807 109.342 136.944 108.474 135.879 108.474Z" fill="#E3E0E4"/>
<path d="M135.833 66.6778C135.528 74.7049 133.754 82.3524 130.776 89.3619H130.773C124.641 89.9559 118.509 93.0371 112.364 93.44C107.389 93.768 102.413 92.3243 98.5018 89.2147C95.2739 86.65 90.9897 85.103 86.2764 85.103C86.0322 85.103 85.7804 85.1056 85.5336 85.1159C81.0156 85.2709 76.7289 86.8541 73.4701 89.5685C73.4547 89.584 73.4342 89.5995 73.4187 89.615C69.5381 92.8641 64.6705 94.6901 59.6231 94.5764C44.1081 94.2252 28.6111 90.6894 13.1577 89.132C11.8581 86.0395 17.3509 81.957 16.5422 78.6397C15.4859 74.308 8.30921 70.6702 8.17969 66.0425C12.6078 66.2078 17.0307 66.3782 21.4357 66.7553C32.7205 67.7213 43.9333 70.038 55.2464 70.3582C66.5646 70.6811 77.8905 69.0049 89.2061 68.6846C100.519 68.3618 111.922 69.3923 123.21 68.4289C127.442 68.0648 131.642 67.4242 135.833 66.6778Z" fill="#E5936A"/>
<path d="M40.1606 91.237C31.1476 90.7385 22.145 90.0386 13.1577 89.132C10.1611 82.0011 8.40842 74.2142 8.17969 66.0425C12.6078 66.2078 17.0307 66.3782 21.4357 66.7553C25.0156 67.0627 28.5879 67.5043 32.1576 67.9744C32.9338 73.5685 34.4295 78.9303 36.5446 83.9666C37.5983 86.477 38.8088 88.9022 40.1606 91.237Z" fill="#E27C48"/>
<path d="M28.3523 67.9743C28.1937 70.6655 29.5378 71.804 33.0145 72.0109C35.6218 72.1661 37.9324 72.0615 38.991 70.3693C39.3439 69.8052 39.5579 69.1748 39.5975 68.502C39.7561 65.8108 37.0666 63.4613 33.5899 63.2544C32.9323 63.2151 32.2936 63.2557 31.6892 63.3649C29.0984 63.8337 28.4811 65.7922 28.3523 67.9743Z" fill="#ECC52E"/>
<path d="M39.0259 70.3066C37.9877 72.0345 35.6541 73.1579 33.0147 73.0004C29.5376 72.7938 26.8493 70.4435 27.0087 67.7523C27.1346 65.5699 29.0981 63.8317 31.6886 63.3643C31.3571 63.9118 31.1592 64.5213 31.1207 65.1696C30.9613 67.8608 33.6495 70.2111 37.1267 70.4177C37.7846 70.4564 38.4246 70.4151 39.0259 70.3066Z" fill="#DBB72B"/>
<path d="M18.4856 120.253H17.6604V119.425C17.6604 118.356 16.7974 117.488 15.7329 117.488C14.6684 117.488 13.8054 118.356 13.8054 119.425V120.253H12.9802C11.9157 120.253 11.0527 121.12 11.0527 122.19C11.0527 123.26 11.9157 124.127 12.9802 124.127H13.8054V124.954C13.8054 126.024 14.6684 126.891 15.7329 126.891C16.7974 126.891 17.6604 126.024 17.6604 124.954V124.127H18.4856C19.5501 124.127 20.4131 123.26 20.4131 122.19C20.4131 121.12 19.5504 120.253 18.4856 120.253Z" fill="#CA4646"/>
<path d="M130.772 89.3626C128.466 94.7941 125.436 99.8407 121.802 104.381C118.269 104.673 114.737 107.514 111.204 107.744C106.75 108.033 102.461 109.707 99.1145 112.672C98.9809 112.79 98.8447 112.907 98.7033 113.023C95.4446 115.737 91.1604 117.318 86.6424 117.476C86.3905 117.483 86.1438 117.488 85.8996 117.488C81.1503 117.488 76.843 115.921 73.61 113.325C70.0994 110.507 65.7433 108.973 61.2535 108.888C48.2083 108.643 35.163 105.383 22.1486 104.28H22.1461C20.3244 101.995 25.1288 97.1072 23.6271 94.582C22.1206 92.0484 14.3094 91.8764 13.1562 89.1328C28.6096 90.6901 44.1066 91.6432 59.6216 91.9944C64.669 92.1081 69.5366 90.2821 73.4172 87.033C73.4327 87.0175 73.4532 87.002 73.4686 86.9865C76.7274 84.2721 81.0141 82.6889 85.5321 82.5339C85.7789 82.5236 86.0307 82.521 86.2749 82.521C90.9882 82.521 95.2724 84.068 98.5003 86.6327C102.412 89.7423 107.387 91.186 112.363 90.858C118.508 90.4551 124.64 89.9566 130.772 89.3626Z" fill="#ECC52E"/>
<path d="M51.9579 106.054C42.012 105.713 32.0713 105.122 22.1486 104.28H22.1461C18.4967 99.7008 15.459 94.6103 13.1562 89.1323C22.1435 90.0389 31.1461 90.7388 40.1591 91.2372C41.7576 94.0008 43.554 96.6326 45.5329 99.1145H45.5355C47.5041 101.584 49.6526 103.905 51.9579 106.054Z" fill="#DBB72B"/>
<path d="M97.1133 98.3308C97.1319 98.8688 97.0727 99.3967 96.9432 99.9094C96.0365 103.496 92.2047 104.732 86.8758 104.916C80.7857 105.127 76.7925 103.617 76.6449 99.313C76.5452 96.4005 77.1327 93.5639 80.4354 92.1104C82.0136 91.4156 83.8499 90.9869 85.8193 90.9187C91.9094 90.7079 96.9661 94.0265 97.1133 98.3308Z" fill="#E27C48"/>
<path d="M96.8765 100.15C95.8408 103.622 91.5644 106.326 86.355 106.506C80.2642 106.716 75.2065 103.399 75.06 99.094C74.9597 96.1807 77.1339 93.5644 80.4364 92.1104C80.2616 92.6966 80.1794 93.3061 80.1999 93.9286C80.3464 98.234 85.4041 101.55 91.495 101.341C93.4636 101.271 95.2986 100.843 96.8765 100.15Z" fill="#DF6937"/>
<path d="M121.802 104.38C115.301 112.501 106.874 118.998 97.2178 123.17C89.4852 126.511 80.9143 124.698 71.9638 124.698C51.7895 124.698 44.7148 122.761 33.0137 108.081C42.9366 108.922 42.0125 105.714 51.9578 106.057C55.0562 106.164 58.1548 106.246 61.2534 106.305C65.7432 106.39 70.0993 107.924 73.6099 110.742C76.843 113.337 81.1502 114.905 85.8996 114.905C86.1437 114.905 86.3904 114.9 86.6423 114.892C91.1603 114.735 95.4445 113.154 98.7032 110.439C98.8446 110.323 98.9808 110.207 99.1144 110.088C102.461 107.123 106.75 105.45 111.204 105.16C114.737 104.93 118.269 104.672 121.802 104.38Z" fill="#E5936A"/>
<path d="M97.2177 123.17C89.4846 126.51 80.9651 128.362 72.0138 128.362C51.8395 128.362 33.8496 118.96 22.1484 104.28C32.0711 105.122 42.0118 105.714 51.9577 106.055C63.353 116.693 78.6213 123.196 95.4007 123.196C96.0072 123.196 96.6137 123.188 97.2177 123.17Z" fill="#E27C48"/>
</svg>
