<svg width="89" height="89" viewBox="0 0 89 89" fill="none" xmlns="http://www.w3.org/2000/svg">
<g clip-path="url(#clip0)">
<path d="M29.6228 43.4846C29.5747 43.4763 29.5269 43.4663 29.4787 43.4551L8.79935 38.5633C8.01247 38.3776 7.37684 37.8004 7.11565 37.0358C6.85504 36.2714 7.00489 35.4258 7.51343 34.7975C7.6565 34.6205 11.088 30.4274 16.8002 27.2369C24.5192 22.9262 32.7053 22.5031 40.4728 26.0136C41.1176 26.3049 41.5964 26.8713 41.7772 27.5553C41.958 28.2393 41.821 28.9684 41.404 29.5396L31.9193 42.5524C31.3906 43.2775 30.4986 43.6348 29.6228 43.4846Z" fill="#FF5B5B"/>
<path d="M40.2198 82.8263C39.8386 82.7609 39.4736 82.6016 39.1601 82.3534C38.5264 81.8523 38.194 81.0612 38.2807 80.2573L40.5629 59.1302C40.6647 58.1894 41.3206 57.4009 42.2275 57.1301L57.6578 52.5253C58.3359 52.3232 59.0684 52.437 59.653 52.8355C60.2383 53.2334 60.6119 53.8742 60.6716 54.5792C61.3926 63.0728 58.2648 70.6496 51.6269 76.49C46.7152 80.8119 41.6176 82.6487 41.4029 82.7252C41.0175 82.8618 40.6102 82.8933 40.2198 82.8263Z" fill="#FF193D"/>
<path d="M82.1783 31.1093L69.7708 13.5619C69.2736 12.8588 68.4315 12.4841 67.5764 12.5849C57.041 13.8303 48.0121 17.0695 40.739 22.2117C39.2221 23.2848 37.7376 24.475 36.3276 25.7489C32.2279 29.4504 28.5486 34.0273 25.3926 39.353C23.382 42.7475 21.5847 46.4452 20.0506 50.3431C17.3712 57.1519 16.4242 62.1988 16.3849 62.4103C16.2703 63.0329 16.4116 63.6761 16.7773 64.1932C17.1372 64.7022 17.685 65.0473 18.299 65.1526L18.3274 65.1575C18.5404 65.1917 23.6144 65.9812 30.9263 65.7248C35.1126 65.5778 39.1979 65.116 43.0692 64.3515C49.1417 63.1513 54.6833 61.2088 59.5385 58.5778C61.2109 57.6728 62.8278 56.6699 64.3453 55.5969C71.6185 50.4541 77.6823 43.0215 82.3679 33.5038C82.7485 32.7313 82.6754 31.8124 82.1783 31.1093Z" fill="#E1F1FA"/>
<path d="M33.1065 62.5059L23.8104 49.3589C23.1242 48.3884 21.8212 48.0832 20.7749 48.6478C19.962 49.0868 19.1766 49.5734 18.441 50.0936C9.29333 56.5617 6.97594 68.6182 6.8819 69.128C6.76665 69.7511 6.90792 70.3943 7.27417 70.9116C7.63397 71.4211 8.18124 71.7661 8.79526 71.8714C8.8051 71.8731 8.81495 71.8748 8.8249 71.8759C9.3369 71.9572 21.4769 73.7916 30.6239 67.3233C31.3596 66.8032 32.0802 66.2249 32.765 65.6048C33.6461 64.8066 33.7927 63.4764 33.1065 62.5059Z" fill="#FFF261"/>
<path d="M25.6513 38.9199L17.5854 44.6237C17.0765 44.983 16.731 45.5302 16.6255 46.1448C16.5202 46.7588 16.6635 47.3899 17.0234 47.8988L32.2214 69.3926C32.5807 69.9015 33.128 70.2465 33.7426 70.3519C34.3572 70.4574 34.9876 70.3145 35.4966 69.9546L43.5624 64.2513L25.6513 38.9199Z" fill="#1B3B6B"/>
<path d="M55.9388 42.7109C54.0516 42.3871 52.4029 41.3475 51.2972 39.7838C49.015 36.5561 49.7841 32.0738 53.0119 29.7909C54.5755 28.6853 56.4765 28.2548 58.3637 28.5786C60.251 28.9024 61.8997 29.9421 63.0053 31.5057C64.111 33.0693 64.5416 34.9697 64.2177 36.8575C63.8938 38.7448 62.8543 40.3929 61.2907 41.4986C59.7271 42.6042 57.8261 43.0347 55.9388 42.7109Z" fill="#06CCAB"/>
<path d="M55.5481 44.9764C53.0556 44.5487 50.879 43.1758 49.4193 41.1114C46.4052 36.8487 47.421 30.9286 51.6837 27.9146C53.7481 26.4548 56.2584 25.8861 58.7504 26.3137C61.243 26.7414 63.4195 28.1143 64.8799 30.1789C66.3401 32.244 66.9083 34.7536 66.4806 37.2462C66.0529 39.7388 64.6806 41.9154 62.6155 43.3756C60.5504 44.8353 58.0407 45.4041 55.5481 44.9764ZM57.9556 30.9461C56.7009 30.7308 55.4364 31.0171 54.3967 31.7523C52.2507 33.2702 51.7392 36.2511 53.2565 38.3976C53.9917 39.4373 55.0883 40.1288 56.343 40.344C57.5983 40.5594 58.8621 40.273 59.9018 39.5378C60.9415 38.8027 61.6329 37.7066 61.8483 36.4513C62.0637 35.1961 61.7772 33.9322 61.0421 32.8925C60.3069 31.8528 59.2108 31.1615 57.9556 30.9461Z" fill="#1B3B6B"/>
<path d="M88.3064 13.6157C87.9402 13.0979 87.3781 12.7456 86.7551 12.6513C86.4109 12.5964 78.1993 11.3293 67.5758 12.5847L82.3673 33.5036C87.0923 23.9062 88.6351 15.7419 88.6981 15.3991C88.8133 14.7761 88.672 14.1329 88.3064 13.6157Z" fill="#FF5B5B"/>
<path d="M82.1765 31.109L75.9728 22.3353L16.7755 64.193C17.1354 64.702 17.6827 65.0469 18.2967 65.1523L18.3257 65.1573C18.5381 65.1913 23.612 65.9808 30.9245 65.7245C35.1109 65.5775 39.1956 65.1156 43.0669 64.3511C49.14 63.151 54.6815 61.2085 59.5368 58.5776C61.2085 57.6724 62.8261 56.6696 64.343 55.5966C71.6161 50.4538 77.6799 43.0212 82.3656 33.5035C82.7468 32.7311 82.6737 31.8121 82.1765 31.109Z" fill="#CDEBFC"/>
<path d="M33.1073 62.5057L28.4593 55.9323L7.27438 70.9113L7.27428 70.9119C7.63477 71.421 8.18203 71.7659 8.79605 71.8713L8.82502 71.8763C9.3376 71.9576 21.4771 73.7914 30.6247 67.3232C31.3604 66.803 32.0809 66.2248 32.7652 65.6045C33.6469 64.8065 33.7941 63.4763 33.1073 62.5057Z" fill="#FDBF00"/>
<path d="M34.6067 51.5859L24.6216 58.6462L32.2208 69.3935C32.5803 69.9018 33.1274 70.2473 33.742 70.3528C34.3566 70.4582 34.9871 70.3148 35.496 69.9554L43.5619 64.2516L34.6067 51.5859Z" fill="#001035"/>
<path d="M63.0052 31.5058C63.0046 31.5057 63.0046 31.5057 63.0046 31.5057L51.2971 39.7839L51.2977 39.784C52.4027 41.3475 54.0514 42.3872 55.9387 42.711C57.8259 43.0348 59.7269 42.6043 61.2905 41.4986C62.8542 40.393 63.8937 38.7449 64.2175 36.8576C64.5408 34.9703 64.1108 33.0694 63.0052 31.5058Z" fill="#1CADB5"/>
<path d="M64.8823 30.1789L61.0445 32.8926C61.7797 33.9323 62.0661 35.1962 61.8507 36.4514C61.6354 37.7067 60.944 38.8028 59.9043 39.5379C58.8646 40.2731 57.6007 40.5595 56.3455 40.3441C55.0902 40.1287 53.9941 39.4374 53.259 38.3977L53.2591 38.3971L49.4213 41.1108L49.4212 41.1113C50.8815 43.1759 53.058 44.5488 55.5506 44.9765C58.0432 45.4042 60.5529 44.8354 62.618 43.3757C64.6825 41.9154 66.0554 39.7388 66.4831 37.2463C66.9108 34.7537 66.342 32.244 64.8823 30.1789Z" fill="#001035"/>
<path d="M88.3052 13.615L74.9708 23.0441L82.3666 33.5035C87.0916 23.9061 88.6344 15.7419 88.6973 15.3991C88.8126 14.776 88.6713 14.1328 88.3052 13.615Z" fill="#FF193D"/>
</g>
<defs>
<clipPath id="clip0">
<rect width="77.0348" height="77.0348" fill="white" transform="translate(13.0273) rotate(9.73634)"/>
</clipPath>
</defs>
</svg>
