<svg width="29" height="29" viewBox="0 0 29 29" fill="none" xmlns="http://www.w3.org/2000/svg">
<path d="M21.2817 18.7196C22.7088 16.7709 23.5624 14.3772 23.5624 11.7822C23.5624 5.28626 18.2771 0.000976562 11.7812 0.000976562C5.28522 0.000976562 0 5.28626 0 11.7822C0 18.2781 5.28528 23.5634 11.7812 23.5634C14.3762 23.5634 16.7701 22.7097 18.7189 21.2827L26.437 29.0008L29 26.4378C29 26.4378 21.2817 18.7196 21.2817 18.7196ZM11.7812 19.9384C7.28361 19.9384 3.62501 16.2798 3.62501 11.7822C3.62501 7.28459 7.28361 3.62599 11.7812 3.62599C16.2788 3.62599 19.9374 7.28459 19.9374 11.7822C19.9374 16.2798 16.2788 19.9384 11.7812 19.9384Z" fill="black"/>
</svg>
